<svg width="12" height="13" viewBox="0 0 12 13" fill="none" xmlns="http://www.w3.org/2000/svg">
<path d="M6.66296 6.50003L11.8627 1.30023C12.0458 1.11716 12.0458 0.820349 11.8627 0.637303C11.6797 0.454256 11.3828 0.454232 11.1998 0.637303L6 5.8371L0.800232 0.637303C0.617162 0.454232 0.320349 0.454232 0.137303 0.637303C-0.0457441 0.820373 -0.0457676 1.11719 0.137303 1.30023L5.33707 6.5L0.137303 11.6998C-0.0457676 11.8829 -0.0457676 12.1797 0.137303 12.3627C0.228826 12.4543 0.348803 12.5 0.468779 12.5C0.588756 12.5 0.708709 12.4543 0.800256 12.3627L6 7.16296L11.1998 12.3627C11.2913 12.4543 11.4113 12.5 11.5313 12.5C11.6512 12.5 11.7712 12.4543 11.8627 12.3627C12.0458 12.1797 12.0458 11.8828 11.8627 11.6998L6.66296 6.50003Z" fill="white"/>
</svg>
